<?xml version="1.0" encoding="UTF-8" standalone="no"?>
<!DOCTYPE svg PUBLIC "-//W3C//DTD SVG 20010904//EN"
              "http://www.w3.org/TR/2001/REC-SVG-20010904/DTD/svg10.dtd">

<svg xmlns="http://www.w3.org/2000/svg"
     width="5.55556in" height="5.55556in"
     viewBox="0 0 400 400">
  <path id="Selection"
        fill="none" stroke="black" stroke-width="1"
        d="M 116.72,19.40
           C 128.82,13.16 148.54,6.66 162.00,4.32
             162.00,4.32 176.00,2.72 176.00,2.72
             176.00,2.72 201.00,0.02 201.00,0.02
             213.85,0.27 243.46,5.06 256.00,8.59
             256.00,8.59 267.00,12.65 267.00,12.65
             279.21,16.77 289.75,22.26 301.00,28.46
             306.65,31.57 312.69,34.26 316.00,40.00
             320.64,40.24 325.39,44.77 328.83,47.81
             335.65,53.81 348.44,66.47 353.89,73.55
             356.72,77.22 359.82,79.30 360.00,84.00
             360.00,84.00 363.46,86.40 363.46,86.40
             363.46,86.40 376.86,108.04 376.86,108.04
             376.86,108.04 382.00,118.00 382.00,118.00
             382.00,118.00 391.29,144.00 391.29,144.00
             395.14,156.73 400.24,188.01 399.98,201.00
             399.72,214.79 395.30,242.72 391.29,256.00
             391.29,256.00 382.00,282.00 382.00,282.00
             378.64,285.60 378.91,287.74 376.85,291.91
             373.73,298.25 365.74,312.67 360.00,316.00
             359.82,320.70 356.72,322.78 353.89,326.45
             348.44,333.53 335.65,346.19 328.83,352.19
             325.39,355.23 320.64,359.76 316.00,360.00
             312.69,365.74 306.65,368.43 301.00,371.54
             289.40,377.93 279.56,382.95 267.00,387.34
             246.52,394.52 243.96,394.53 223.00,397.42
             223.00,397.42 201.00,399.98 201.00,399.98
             201.00,399.98 176.00,397.28 176.00,397.28
             176.00,397.28 162.00,395.68 162.00,395.68
             148.54,393.34 128.82,386.84 116.72,380.60
             107.90,376.05 88.88,368.35 84.00,360.00
             79.36,359.76 74.61,355.23 71.17,352.19
             62.49,344.55 53.89,336.37 46.72,327.26
             43.63,323.33 40.29,321.08 40.00,316.00
             40.00,316.00 29.00,304.00 29.00,304.00
             29.00,304.00 25.10,295.54 25.10,295.54
             25.10,295.54 18.00,282.00 18.00,282.00
             18.00,282.00 8.71,256.00 8.71,256.00
             4.86,243.27 -0.24,211.99 0.02,199.00
             0.28,185.21 4.70,157.28 8.71,144.00
             8.71,144.00 18.00,118.00 18.00,118.00
             18.00,118.00 25.54,103.80 25.54,103.80
             25.54,103.80 29.00,96.00 29.00,96.00
             29.00,96.00 40.00,84.00 40.00,84.00
             40.29,78.92 43.63,76.67 46.72,72.74
             53.89,63.63 62.49,55.45 71.17,47.81
             74.61,44.77 79.36,40.24 84.00,40.00
             88.88,31.65 107.90,23.95 116.72,19.40 Z
           M 143.00,10.00
           C 143.00,10.00 144.00,11.00 144.00,11.00
             144.00,11.00 144.00,10.00 144.00,10.00
             144.00,10.00 143.00,10.00 143.00,10.00 Z
           M 70.00,54.00
           C 70.00,54.00 71.00,55.00 71.00,55.00
             71.00,55.00 71.00,54.00 71.00,54.00
             71.00,54.00 70.00,54.00 70.00,54.00 Z
           M 329.00,54.00
           C 329.00,54.00 330.00,55.00 330.00,55.00
             330.00,55.00 330.00,54.00 330.00,54.00
             330.00,54.00 329.00,54.00 329.00,54.00 Z
           M 62.00,62.00
           C 62.00,62.00 63.00,63.00 63.00,63.00
             63.00,63.00 63.00,62.00 63.00,62.00
             63.00,62.00 62.00,62.00 62.00,62.00 Z
           M 337.00,62.00
           C 337.00,62.00 338.00,63.00 338.00,63.00
             338.00,63.00 338.00,62.00 338.00,62.00
             338.00,62.00 337.00,62.00 337.00,62.00 Z
           M 209.00,67.00
           C 209.00,67.00 210.00,68.00 210.00,68.00
             210.00,68.00 210.00,67.00 210.00,67.00
             210.00,67.00 209.00,67.00 209.00,67.00 Z
           M 218.00,67.68
           C 215.02,67.05 211.27,66.75 209.99,70.23
             209.36,71.81 210.00,79.56 209.99,82.00
             209.99,82.00 209.99,231.00 209.99,231.00
             209.99,231.00 209.99,268.00 209.99,268.00
             209.96,272.08 208.51,277.32 214.02,278.05
             214.02,278.05 223.00,278.05 223.00,278.05
             223.00,278.05 254.00,278.05 254.00,278.05
             276.88,278.00 290.52,278.33 310.42,265.17
             313.93,262.85 314.39,263.05 318.00,259.93
             323.78,254.94 328.57,249.34 332.81,243.00
             338.45,234.57 339.86,230.57 342.48,221.00
             346.65,205.12 346.53,193.82 342.48,177.99
             341.33,173.09 340.44,166.98 336.00,164.00
             335.89,160.27 335.14,159.02 332.00,157.00
             330.58,149.10 322.46,146.48 321.00,141.00
             312.75,135.77 298.43,123.68 288.00,125.00
             288.00,125.00 280.00,122.02 280.00,122.02
             280.00,122.02 254.92,121.00 254.92,121.00
             254.92,121.00 254.92,141.00 254.92,141.00
             254.61,143.82 253.63,148.09 255.79,150.40
             257.80,152.56 263.20,151.97 266.00,152.00
             292.64,152.31 314.60,174.15 313.99,201.00
             313.71,213.18 307.85,224.58 299.49,233.20
             295.85,236.95 292.40,240.58 287.00,241.00
             280.00,247.81 263.42,248.09 254.00,248.00
             251.38,247.97 244.47,248.07 242.60,246.33
             240.67,244.53 241.00,240.45 241.00,238.00
             241.00,238.00 241.00,102.00 241.00,102.00
             240.99,97.18 241.04,91.58 239.45,87.00
             238.10,83.12 235.55,80.08 235.00,76.00
             227.95,72.99 227.14,69.63 218.00,67.68 Z
           M 33.00,94.00
           C 33.00,94.00 34.00,95.00 34.00,95.00
             34.00,95.00 34.00,94.00 34.00,94.00
             34.00,94.00 33.00,94.00 33.00,94.00 Z
           M 366.00,94.00
           C 366.00,94.00 367.00,95.00 367.00,95.00
             367.00,95.00 367.00,94.00 367.00,94.00
             367.00,94.00 366.00,94.00 366.00,94.00 Z
           M 182.00,332.18
           C 184.61,332.70 188.02,333.28 189.92,330.57
             190.88,328.59 190.00,320.84 189.92,318.00
             189.92,318.00 189.92,170.00 189.92,170.00
             189.92,170.00 189.92,132.00 189.92,132.00
             190.01,129.69 190.66,124.28 189.23,122.60
             187.59,120.66 183.34,121.00 181.00,121.14
             181.00,121.14 128.00,121.14 128.00,121.14
             125.38,121.25 110.28,123.72 108.29,124.79
             106.81,125.58 106.90,125.82 106.00,127.00
             106.00,127.00 93.00,131.00 93.00,131.00
             93.00,131.00 92.00,134.00 92.00,134.00
             83.55,135.17 72.95,148.27 68.28,155.00
             61.72,164.47 60.68,167.15 57.57,178.00
             57.57,178.00 55.62,184.00 55.62,184.00
             55.62,184.00 55.09,192.00 55.09,192.00
             55.09,192.00 54.18,200.00 54.18,200.00
             54.18,200.00 55.30,208.00 55.30,208.00
             55.30,208.00 55.30,215.00 55.30,215.00
             55.30,215.00 57.38,221.00 57.38,221.00
             60.60,231.90 60.75,234.15 67.59,244.00
             72.45,251.01 83.16,264.78 92.00,266.00
             92.00,266.00 93.00,269.00 93.00,269.00
             93.00,269.00 106.00,273.00 106.00,273.00
             109.19,277.17 113.35,276.30 118.00,277.12
             118.00,277.12 125.00,278.86 125.00,278.86
             125.00,278.86 145.10,278.86 145.10,278.86
             145.10,278.86 145.10,258.00 145.10,258.00
             145.38,255.55 145.97,251.58 144.19,249.60
             142.33,247.54 137.59,248.01 135.00,248.00
             106.20,247.85 84.37,224.85 86.08,196.01
             86.79,183.98 96.60,168.34 106.29,161.47
             112.54,157.03 120.48,154.26 128.00,153.08
             135.62,151.88 143.30,151.86 151.00,152.00
             153.14,152.04 155.77,151.96 157.40,153.60
             159.32,155.52 158.99,159.46 159.00,162.00
             159.00,162.00 159.00,296.00 159.00,296.00
             159.01,300.00 159.17,308.39 160.23,312.00
             161.52,316.40 164.70,319.53 165.00,324.00
             172.32,327.13 172.56,330.30 182.00,332.18 Z
           M 318.00,138.00
           C 318.00,138.00 319.00,139.00 319.00,139.00
             319.00,139.00 319.00,138.00 319.00,138.00
             319.00,138.00 318.00,138.00 318.00,138.00 Z
           M 119.00,155.00
           C 119.00,155.00 120.00,156.00 120.00,156.00
             120.00,156.00 120.00,155.00 120.00,155.00
             120.00,155.00 119.00,155.00 119.00,155.00 Z
           M 292.00,161.00
           C 292.00,161.00 293.00,162.00 293.00,162.00
             293.00,162.00 293.00,161.00 293.00,161.00
             293.00,161.00 292.00,161.00 292.00,161.00 Z
           M 297.00,165.00
           C 297.00,165.00 298.00,166.00 298.00,166.00
             298.00,166.00 298.00,165.00 298.00,165.00
             298.00,165.00 297.00,165.00 297.00,165.00 Z
           M 98.00,171.00
           C 98.00,171.00 99.00,172.00 99.00,172.00
             99.00,172.00 99.00,171.00 99.00,171.00
             99.00,171.00 98.00,171.00 98.00,171.00 Z
           M 297.00,233.00
           C 297.00,233.00 298.00,234.00 298.00,234.00
             298.00,234.00 298.00,233.00 298.00,233.00
             298.00,233.00 297.00,233.00 297.00,233.00 Z
           M 102.00,234.00
           C 102.00,234.00 103.00,235.00 103.00,235.00
             103.00,235.00 103.00,234.00 103.00,234.00
             103.00,234.00 102.00,234.00 102.00,234.00 Z
           M 107.00,238.00
           C 107.00,238.00 108.00,239.00 108.00,239.00
             108.00,239.00 108.00,238.00 108.00,238.00
             108.00,238.00 107.00,238.00 107.00,238.00 Z
           M 310.00,269.00
           C 310.00,269.00 311.00,270.00 311.00,270.00
             311.00,270.00 311.00,269.00 311.00,269.00
             311.00,269.00 310.00,269.00 310.00,269.00 Z
           M 33.00,305.00
           C 33.00,305.00 34.00,306.00 34.00,306.00
             34.00,306.00 34.00,305.00 34.00,305.00
             34.00,305.00 33.00,305.00 33.00,305.00 Z
           M 366.00,305.00
           C 366.00,305.00 367.00,306.00 367.00,306.00
             367.00,306.00 367.00,305.00 367.00,305.00
             367.00,305.00 366.00,305.00 366.00,305.00 Z
           M 190.00,332.00
           C 190.00,332.00 191.00,333.00 191.00,333.00
             191.00,333.00 191.00,332.00 191.00,332.00
             191.00,332.00 190.00,332.00 190.00,332.00 Z
           M 177.00,333.00
           C 177.00,333.00 178.00,334.00 178.00,334.00
             178.00,334.00 178.00,333.00 178.00,333.00
             178.00,333.00 177.00,333.00 177.00,333.00 Z
           M 62.00,337.00
           C 62.00,337.00 63.00,338.00 63.00,338.00
             63.00,338.00 63.00,337.00 63.00,337.00
             63.00,337.00 62.00,337.00 62.00,337.00 Z
           M 337.00,337.00
           C 337.00,337.00 338.00,338.00 338.00,338.00
             338.00,338.00 338.00,337.00 338.00,337.00
             338.00,337.00 337.00,337.00 337.00,337.00 Z
           M 70.00,345.00
           C 70.00,345.00 71.00,346.00 71.00,346.00
             71.00,346.00 71.00,345.00 71.00,345.00
             71.00,345.00 70.00,345.00 70.00,345.00 Z
           M 329.00,345.00
           C 329.00,345.00 330.00,346.00 330.00,346.00
             330.00,346.00 330.00,345.00 330.00,345.00
             330.00,345.00 329.00,345.00 329.00,345.00 Z
           M 143.00,389.00
           C 143.00,389.00 144.00,390.00 144.00,390.00
             144.00,390.00 144.00,389.00 144.00,389.00
             144.00,389.00 143.00,389.00 143.00,389.00 Z" />
</svg>
